G04 Layer: TopSilkscreenLayer*
G04 EasyEDA v6.5.15, 2022-08-29 16:45:13*
G04 09623d91c7444fdd891dc3a6f912d1c4,ec20ccd4d5364735b5a2b8d176f8c56e,10*
G04 Gerber Generator version 0.2*
G04 Scale: 100 percent, Rotated: No, Reflected: No *
G04 Dimensions in millimeters *
G04 leading zeros omitted , absolute positions ,4 integer and 5 decimal *
%FSLAX45Y45*%
%MOMM*%

%ADD10C,0.1524*%
%ADD11C,0.2540*%
%ADD12C,0.2032*%

%LPD*%
D10*
X1931619Y13318413D02*
G01*
X1931619Y13209447D01*
X1931619Y13318413D02*
G01*
X1978355Y13318413D01*
X1993849Y13313333D01*
X1999183Y13307999D01*
X2004263Y13297585D01*
X2004263Y13287171D01*
X1999183Y13276757D01*
X1993849Y13271677D01*
X1978355Y13266597D01*
X1931619Y13266597D02*
G01*
X1978355Y13266597D01*
X1993849Y13261263D01*
X1999183Y13256183D01*
X2004263Y13245769D01*
X2004263Y13230021D01*
X1999183Y13219607D01*
X1993849Y13214527D01*
X1978355Y13209447D01*
X1931619Y13209447D01*
X2038553Y13297585D02*
G01*
X2048967Y13302919D01*
X2064715Y13318413D01*
X2064715Y13209447D01*
X4344619Y13318413D02*
G01*
X4344619Y13209447D01*
X4344619Y13318413D02*
G01*
X4391355Y13318413D01*
X4406849Y13313333D01*
X4412183Y13307999D01*
X4417263Y13297585D01*
X4417263Y13287171D01*
X4412183Y13276757D01*
X4406849Y13271677D01*
X4391355Y13266597D01*
X4344619Y13266597D02*
G01*
X4391355Y13266597D01*
X4406849Y13261263D01*
X4412183Y13256183D01*
X4417263Y13245769D01*
X4417263Y13230021D01*
X4412183Y13219607D01*
X4406849Y13214527D01*
X4391355Y13209447D01*
X4344619Y13209447D01*
X4456887Y13292505D02*
G01*
X4456887Y13297585D01*
X4461967Y13307999D01*
X4467301Y13313333D01*
X4477715Y13318413D01*
X4498289Y13318413D01*
X4508703Y13313333D01*
X4514037Y13307999D01*
X4519117Y13297585D01*
X4519117Y13287171D01*
X4514037Y13276757D01*
X4503623Y13261263D01*
X4451553Y13209447D01*
X4524451Y13209447D01*
X7060691Y12028678D02*
G01*
X7050277Y12023344D01*
X7039863Y12012929D01*
X7034784Y12002770D01*
X7034784Y11981942D01*
X7039863Y11971528D01*
X7050277Y11961113D01*
X7060691Y11955779D01*
X7076440Y11950700D01*
X7102347Y11950700D01*
X7117841Y11955779D01*
X7128256Y11961113D01*
X7138670Y11971528D01*
X7143750Y11981942D01*
X7143750Y12002770D01*
X7138670Y12012929D01*
X7128256Y12023344D01*
X7117841Y12028678D01*
X7034784Y12062968D02*
G01*
X7143750Y12062968D01*
X7034784Y12062968D02*
G01*
X7143750Y12135612D01*
X7034784Y12135612D02*
G01*
X7143750Y12135612D01*
X7055611Y12169902D02*
G01*
X7050277Y12180315D01*
X7034784Y12195810D01*
X7143750Y12195810D01*
X6299200Y12586715D02*
G01*
X6299200Y12477750D01*
X6299200Y12586715D02*
G01*
X6335522Y12586715D01*
X6351270Y12581636D01*
X6361429Y12571221D01*
X6366763Y12560808D01*
X6371843Y12545060D01*
X6371843Y12519152D01*
X6366763Y12503658D01*
X6361429Y12493244D01*
X6351270Y12482829D01*
X6335522Y12477750D01*
X6299200Y12477750D01*
X6406134Y12565887D02*
G01*
X6416547Y12571221D01*
X6432295Y12586715D01*
X6432295Y12477750D01*
X6299200Y11875515D02*
G01*
X6299200Y11766550D01*
X6299200Y11875515D02*
G01*
X6335522Y11875515D01*
X6351270Y11870436D01*
X6361429Y11860021D01*
X6366763Y11849608D01*
X6371843Y11833860D01*
X6371843Y11807952D01*
X6366763Y11792458D01*
X6361429Y11782044D01*
X6351270Y11771629D01*
X6335522Y11766550D01*
X6299200Y11766550D01*
X6411468Y11849608D02*
G01*
X6411468Y11854687D01*
X6416547Y11865102D01*
X6421881Y11870436D01*
X6432295Y11875515D01*
X6452870Y11875515D01*
X6463284Y11870436D01*
X6468618Y11865102D01*
X6473697Y11854687D01*
X6473697Y11844274D01*
X6468618Y11833860D01*
X6458204Y11818365D01*
X6406134Y11766550D01*
X6479031Y11766550D01*
D11*
X2036602Y10769119D02*
G01*
X2328108Y10769119D01*
X1558107Y10769119D02*
G01*
X1849597Y10769119D01*
X1953107Y12449121D02*
G01*
X1953107Y12703121D01*
X2328108Y10769119D02*
G01*
X2328108Y11059119D01*
X1558107Y10769119D02*
G01*
X1558107Y11049119D01*
X1943107Y11142118D02*
G01*
X1943107Y11396118D01*
X2080107Y11269118D02*
G01*
X1826107Y11269118D01*
X4449602Y10769119D02*
G01*
X4741108Y10769119D01*
X3971107Y10769119D02*
G01*
X4262597Y10769119D01*
X4366107Y12449121D02*
G01*
X4366107Y12703121D01*
X4741108Y10769119D02*
G01*
X4741108Y11059119D01*
X3971107Y10769119D02*
G01*
X3971107Y11049119D01*
X4356107Y11142118D02*
G01*
X4356107Y11396118D01*
X4493107Y11269118D02*
G01*
X4239107Y11269118D01*
D12*
X7442200Y11442700D02*
G01*
X7442200Y12458700D01*
X7175500Y12458700D01*
X7175500Y12446000D02*
G01*
X7175500Y11442700D01*
X7442200Y11442700D01*
D11*
X6544597Y12208997D02*
G01*
X6104597Y12208997D01*
X6544597Y12429002D02*
G01*
X6104597Y12429002D01*
X6544597Y12208997D02*
G01*
X6544597Y12429002D01*
X6104597Y12208997D02*
G01*
X6104597Y12429002D01*
X6450660Y12208997D02*
G01*
X6450660Y12429002D01*
X6544597Y11497797D02*
G01*
X6104597Y11497797D01*
X6544597Y11717802D02*
G01*
X6104597Y11717802D01*
X6544597Y11497797D02*
G01*
X6544597Y11717802D01*
X6104597Y11497797D02*
G01*
X6104597Y11717802D01*
X6450660Y11497797D02*
G01*
X6450660Y11717802D01*
G75*
G01*
X2363107Y11209119D02*
G03*
X2354275Y11204979I-420531J885558D01*
G75*
G01*
X2328108Y11059119D02*
G03*
X1559110Y11058373I-385505J1035572D01*
G75*
G01*
X4776107Y11209119D02*
G03*
X4767275Y11204979I-420531J885558D01*
G75*
G01*
X4741108Y11059119D02*
G03*
X3972110Y11058373I-385505J1035572D01*
M02*
