G04 Layer: TopLayer*
G04 EasyEDA v6.5.15, 2022-08-29 16:45:13*
G04 09623d91c7444fdd891dc3a6f912d1c4,ec20ccd4d5364735b5a2b8d176f8c56e,10*
G04 Gerber Generator version 0.2*
G04 Scale: 100 percent, Rotated: No, Reflected: No *
G04 Dimensions in millimeters *
G04 leading zeros omitted , absolute positions ,4 integer and 5 decimal *
%FSLAX45Y45*%
%MOMM*%

%ADD10C,0.2032*%
%ADD11C,0.2030*%
%ADD12C,0.2540*%
%ADD13C,2.0000*%
%ADD14R,1.8000X1.8000*%
%ADD15C,1.8000*%

%LPD*%
D10*
X7221474Y11169650D02*
G01*
X7230618Y11160505D01*
X7244334Y11151615D01*
X7262368Y11142471D01*
X7285227Y11137900D01*
X7303261Y11137900D01*
X7326122Y11142471D01*
X7344156Y11151615D01*
X7357872Y11160505D01*
X7367015Y11169650D01*
X7294118Y11199621D02*
G01*
X7294118Y11281410D01*
X7221474Y11311636D02*
G01*
X7230618Y11320526D01*
X7244334Y11329670D01*
X7262368Y11338813D01*
X7285227Y11343386D01*
X7303261Y11343386D01*
X7326122Y11338813D01*
X7344156Y11329670D01*
X7357872Y11320526D01*
X7367015Y11311636D01*
X7234174Y12566650D02*
G01*
X7243318Y12557505D01*
X7257034Y12548615D01*
X7275068Y12539471D01*
X7297927Y12534900D01*
X7315961Y12534900D01*
X7338822Y12539471D01*
X7356856Y12548615D01*
X7370572Y12557505D01*
X7379715Y12566650D01*
X7265924Y12637515D02*
G01*
X7347965Y12637515D01*
X7306818Y12596621D02*
G01*
X7306818Y12678410D01*
X7234174Y12708636D02*
G01*
X7243318Y12717526D01*
X7257034Y12726670D01*
X7275068Y12735813D01*
X7297927Y12740386D01*
X7315961Y12740386D01*
X7338822Y12735813D01*
X7356856Y12726670D01*
X7370572Y12717526D01*
X7379715Y12708636D01*
D11*
X5334000Y10679937D02*
G01*
X5334000Y10611865D01*
X5338572Y10598150D01*
X5347715Y10589005D01*
X5361177Y10584434D01*
X5370322Y10584434D01*
X5384038Y10589005D01*
X5393181Y10598150D01*
X5397754Y10611865D01*
X5397754Y10679937D01*
X5427725Y10648187D02*
G01*
X5427725Y10584434D01*
X5427725Y10629900D02*
G01*
X5441188Y10643615D01*
X5450331Y10648187D01*
X5464047Y10648187D01*
X5473191Y10643615D01*
X5477509Y10629900D01*
X5477509Y10584434D01*
X5562091Y10679937D02*
G01*
X5562091Y10584434D01*
X5562091Y10634471D02*
G01*
X5553202Y10643615D01*
X5544058Y10648187D01*
X5530341Y10648187D01*
X5521197Y10643615D01*
X5512308Y10634471D01*
X5507736Y10621010D01*
X5507736Y10611865D01*
X5512308Y10598150D01*
X5521197Y10589005D01*
X5530341Y10584434D01*
X5544058Y10584434D01*
X5553202Y10589005D01*
X5562091Y10598150D01*
X5592063Y10621010D02*
G01*
X5646674Y10621010D01*
X5646674Y10629900D01*
X5642102Y10639044D01*
X5637529Y10643615D01*
X5628640Y10648187D01*
X5614924Y10648187D01*
X5605779Y10643615D01*
X5596636Y10634471D01*
X5592063Y10621010D01*
X5592063Y10611865D01*
X5596636Y10598150D01*
X5605779Y10589005D01*
X5614924Y10584434D01*
X5628640Y10584434D01*
X5637529Y10589005D01*
X5646674Y10598150D01*
X5712968Y10679937D02*
G01*
X5704077Y10679937D01*
X5694934Y10675365D01*
X5690361Y10661904D01*
X5690361Y10584434D01*
X5676645Y10648187D02*
G01*
X5708650Y10648187D01*
X5743193Y10679937D02*
G01*
X5747511Y10675365D01*
X5752084Y10679937D01*
X5747511Y10684510D01*
X5743193Y10679937D01*
X5747511Y10648187D02*
G01*
X5747511Y10584434D01*
X5782056Y10648187D02*
G01*
X5782056Y10584434D01*
X5782056Y10629900D02*
G01*
X5795772Y10643615D01*
X5804915Y10648187D01*
X5818631Y10648187D01*
X5827522Y10643615D01*
X5832093Y10629900D01*
X5832093Y10584434D01*
X5862065Y10621010D02*
G01*
X5916675Y10621010D01*
X5916675Y10629900D01*
X5912104Y10639044D01*
X5907531Y10643615D01*
X5898641Y10648187D01*
X5884925Y10648187D01*
X5875781Y10643615D01*
X5866638Y10634471D01*
X5862065Y10621010D01*
X5862065Y10611865D01*
X5866638Y10598150D01*
X5875781Y10589005D01*
X5884925Y10584434D01*
X5898641Y10584434D01*
X5907531Y10589005D01*
X5916675Y10598150D01*
X6001258Y10679937D02*
G01*
X6001258Y10584434D01*
X6001258Y10634471D02*
G01*
X5992113Y10643615D01*
X5982970Y10648187D01*
X5969508Y10648187D01*
X5960363Y10643615D01*
X5951220Y10634471D01*
X5946647Y10621010D01*
X5946647Y10611865D01*
X5951220Y10598150D01*
X5960363Y10589005D01*
X5969508Y10584434D01*
X5982970Y10584434D01*
X5992113Y10589005D01*
X6001258Y10598150D01*
X6164834Y10666476D02*
G01*
X6155690Y10675365D01*
X6142227Y10679937D01*
X6123940Y10679937D01*
X6110477Y10675365D01*
X6101334Y10666476D01*
X6101334Y10657331D01*
X6105906Y10648187D01*
X6110477Y10643615D01*
X6119368Y10639044D01*
X6146800Y10629900D01*
X6155690Y10625581D01*
X6160261Y10621010D01*
X6164834Y10611865D01*
X6164834Y10598150D01*
X6155690Y10589005D01*
X6142227Y10584434D01*
X6123940Y10584434D01*
X6110477Y10589005D01*
X6101334Y10598150D01*
X6199377Y10648187D02*
G01*
X6226809Y10584434D01*
X6253988Y10648187D02*
G01*
X6226809Y10584434D01*
X6217665Y10566400D01*
X6208522Y10557255D01*
X6199377Y10552684D01*
X6194806Y10552684D01*
X6333997Y10634471D02*
G01*
X6329425Y10643615D01*
X6315709Y10648187D01*
X6302247Y10648187D01*
X6288531Y10643615D01*
X6283959Y10634471D01*
X6288531Y10625581D01*
X6297675Y10621010D01*
X6320281Y10616437D01*
X6329425Y10611865D01*
X6333997Y10602721D01*
X6333997Y10598150D01*
X6329425Y10589005D01*
X6315709Y10584434D01*
X6302247Y10584434D01*
X6288531Y10589005D01*
X6283959Y10598150D01*
X6377686Y10679937D02*
G01*
X6377686Y10602721D01*
X6382258Y10589005D01*
X6391147Y10584434D01*
X6400291Y10584434D01*
X6363970Y10648187D02*
G01*
X6395720Y10648187D01*
X6430263Y10621010D02*
G01*
X6484874Y10621010D01*
X6484874Y10629900D01*
X6480302Y10639044D01*
X6475729Y10643615D01*
X6466840Y10648187D01*
X6453124Y10648187D01*
X6443979Y10643615D01*
X6434836Y10634471D01*
X6430263Y10621010D01*
X6430263Y10611865D01*
X6434836Y10598150D01*
X6443979Y10589005D01*
X6453124Y10584434D01*
X6466840Y10584434D01*
X6475729Y10589005D01*
X6484874Y10598150D01*
X6514845Y10648187D02*
G01*
X6514845Y10584434D01*
X6514845Y10629900D02*
G01*
X6528561Y10643615D01*
X6537706Y10648187D01*
X6551168Y10648187D01*
X6560311Y10643615D01*
X6564884Y10629900D01*
X6564884Y10584434D01*
X6564884Y10629900D02*
G01*
X6578600Y10643615D01*
X6587743Y10648187D01*
X6601206Y10648187D01*
X6610350Y10643615D01*
X6614922Y10629900D01*
X6614922Y10584434D01*
X6694931Y10634471D02*
G01*
X6690359Y10643615D01*
X6676643Y10648187D01*
X6663181Y10648187D01*
X6649465Y10643615D01*
X6644893Y10634471D01*
X6649465Y10625581D01*
X6658609Y10621010D01*
X6681215Y10616437D01*
X6690359Y10611865D01*
X6694931Y10602721D01*
X6694931Y10598150D01*
X6690359Y10589005D01*
X6676643Y10584434D01*
X6663181Y10584434D01*
X6649465Y10589005D01*
X6644893Y10598150D01*
X6795008Y10679937D02*
G01*
X6795008Y10584434D01*
X6795008Y10584434D02*
G01*
X6849363Y10584434D01*
X6879336Y10679937D02*
G01*
X6879336Y10584434D01*
X6879336Y10584434D02*
G01*
X6933945Y10584434D01*
X7032243Y10657331D02*
G01*
X7027672Y10666476D01*
X7018527Y10675365D01*
X7009384Y10679937D01*
X6991350Y10679937D01*
X6982206Y10675365D01*
X6973061Y10666476D01*
X6968490Y10657331D01*
X6963918Y10643615D01*
X6963918Y10621010D01*
X6968490Y10607294D01*
X6973061Y10598150D01*
X6982206Y10589005D01*
X6991350Y10584434D01*
X7009384Y10584434D01*
X7018527Y10589005D01*
X7027672Y10598150D01*
X7032243Y10607294D01*
D12*
X4356102Y10849104D02*
G01*
X2356106Y12849100D01*
X1943102Y12849100D01*
X7315202Y11569702D02*
G01*
X7197244Y11569702D01*
X7197244Y11569702D02*
G01*
X5917846Y12849100D01*
X4356102Y12849100D01*
D13*
G01*
X1943100Y10849102D03*
G01*
X1943100Y12849097D03*
G01*
X4356100Y10849102D03*
G01*
X4356100Y12849097D03*
D14*
G01*
X7315200Y11569700D03*
D15*
G01*
X7315200Y11823700D03*
G01*
X7315200Y12077700D03*
G01*
X7315200Y12331700D03*
G01*
X5924600Y12319000D03*
G01*
X6724599Y12319000D03*
G01*
X5924600Y11607800D03*
G01*
X6724599Y11607800D03*
M02*
